<svg width="19" height="22" viewBox="0 0 19 24" fill="none" xmlns="http://www.w3.org/2000/svg">
<path fill-rule="evenodd" clip-rule="evenodd" d="M4.99984 22H12.9998C13.5521 22 13.9998 22.4477 13.9998 23C13.9998 23.5128 13.6138 23.9355 13.1165 23.9933L12.9998 24H4.99984C4.44755 24 3.99984 23.5523 3.99984 23C3.99984 22.4872 4.38588 22.0645 4.88321 22.0067L4.99984 22H12.9998H4.99984ZM17.101 10.6035C17.653 10.6197 18.0874 11.0804 18.0712 11.6324C18.0292 13.0647 17.5711 14.5824 16.794 15.9284C14.3087 20.233 8.80439 21.7079 4.49975 19.2226C1.74622 17.6329 0.0718457 14.7458 0.00075304 11.6258C-0.0118285 11.0737 0.425571 10.6159 0.977713 10.6033C1.52985 10.5907 1.98765 11.0281 2.00023 11.5803C2.05558 14.0091 3.35725 16.2536 5.49975 17.4906C8.8478 19.4236 13.1289 18.2764 15.0619 14.9284C15.6788 13.86 16.0401 12.6628 16.0721 11.5737C16.0883 11.0217 16.5489 10.5873 17.101 10.6035ZM8.99984 0C11.7613 0 13.9998 2.23858 13.9998 5V11.5C13.9998 14.2614 11.7613 16.5 8.99984 16.5C6.23841 16.5 3.99984 14.2614 3.99984 11.5V5C3.99984 2.23858 6.23841 0 8.99984 0Z" fill="#0584FE"/>
</svg>
